<svg xmlns="http://www.w3.org/2000/svg" width="18" height="18" viewBox="0 0 18 18" fill="none">
    <path d="M17.9978 9.13867C17.8992 9.35469 17.7207 9.46739 17.514 9.56131C16.7624 9.89943 16.0156 10.2469 15.2687 10.5897C15.2124 10.6132 15.156 10.6367 15.1184 10.6555C15.1748 10.1014 15.2734 9.55192 15.2734 9.00249C15.2734 8.45305 15.1748 7.90362 15.1184 7.34949C15.2452 7.40584 15.3908 7.47158 15.5412 7.53733C16.2317 7.85196 16.9221 8.17599 17.6126 8.48592C17.7958 8.56576 17.9133 8.69724 18.0025 8.8663C17.9978 8.95083 17.9978 9.04475 17.9978 9.13867Z" fill="#FF9900"/>
    <path d="M8.8567 18.0001C8.65002 17.9062 8.53259 17.7324 8.44334 17.5305C8.10513 16.7744 7.75284 16.0183 7.40994 15.2623C7.38646 15.2106 7.36297 15.1543 7.34888 15.1167C7.89846 15.1731 8.44803 15.2764 8.99292 15.2764C9.54249 15.2764 10.0921 15.1777 10.651 15.1214C10.637 15.1543 10.6182 15.2106 10.59 15.2623C10.2424 16.0183 9.89479 16.7697 9.55659 17.5305C9.46264 17.7371 9.34991 17.9062 9.14323 18.0001C9.04459 18.0001 8.95064 18.0001 8.8567 18.0001Z" fill="#FF9900"/>
    <path d="M8.98891 13.2386C6.65275 13.2342 4.74805 11.321 4.75564 8.98696C4.76323 6.65556 6.67277 4.75793 9.00085 4.76172C11.3375 4.76552 13.2428 6.67896 13.2352 9.01333C13.2276 11.3395 11.323 13.2383 8.98891 13.2386Z" stroke="#FF9900" stroke-width="2"/>
    <path d="M3.52035 5.90773C3.32306 5.37708 3.13517 4.8746 2.94728 4.36743C2.81106 4.00114 2.67484 3.62546 2.53392 3.25448C2.44937 3.02907 2.45407 2.81775 2.63257 2.6346C2.81106 2.45615 3.02244 2.45146 3.24791 2.53599C4.08872 2.85062 4.93423 3.16056 5.77973 3.47519C5.81261 3.48928 5.8408 3.50337 5.89716 3.52685C4.89665 4.11385 4.10751 4.89339 3.52035 5.90773Z" fill="#FF9900"/>
    <path d="M3.52485 12.0972C4.10731 13.0974 4.88705 13.8817 5.89227 14.464C5.8359 14.4921 5.80302 14.5109 5.76074 14.525C4.92933 14.835 4.09791 15.1449 3.2665 15.4548C3.03633 15.5394 2.81556 15.5441 2.63237 15.3609C2.44448 15.1778 2.45388 14.9571 2.53843 14.7269C2.84375 13.9051 3.14907 13.0833 3.45439 12.2615C3.47318 12.2146 3.49667 12.1676 3.52485 12.0972Z" fill="#FF9900"/>
    <path d="M14.4652 5.90305C13.8828 4.8981 13.0983 4.11386 12.0837 3.52686C12.4407 3.39537 12.7742 3.26858 13.1077 3.14648C13.6432 2.94455 14.1834 2.74732 14.7189 2.54539C14.9491 2.45616 15.1698 2.45147 15.353 2.63461C15.5409 2.81776 15.5362 3.03847 15.447 3.26858C15.1416 4.09038 14.8363 4.91219 14.531 5.73399C14.5169 5.78565 14.4981 5.83261 14.4652 5.90305Z" fill="#FF9900"/>
    <path d="M14.4698 12.0878C14.6999 12.7123 14.9207 13.304 15.1415 13.8957C15.2495 14.1869 15.3575 14.478 15.4656 14.7692C15.5454 14.9899 15.5266 15.2012 15.3528 15.3703C15.1837 15.5347 14.9818 15.5487 14.7657 15.4689C13.9108 15.1496 13.0559 14.8349 12.201 14.5156C12.1728 14.5062 12.1493 14.4921 12.0977 14.4687C13.0935 13.8863 13.8779 13.1068 14.4698 12.0878Z" fill="#FF9900"/>
    <path d="M10.6748 2.93524C9.54743 2.63939 8.45297 2.63939 7.33032 2.93524C7.35851 2.8601 7.3679 2.81314 7.39139 2.76618C7.75307 1.97255 8.11946 1.18362 8.48115 0.38999C8.58449 0.159885 8.7395 -0.00447584 9.00724 0.000220183C9.27029 0.00491621 9.4159 0.164581 9.51924 0.38999C9.87623 1.17892 10.2379 1.96316 10.5996 2.75209C10.6184 2.79905 10.6372 2.84601 10.6748 2.93524Z" fill="#FF9900"/>
    <path d="M2.93804 10.6836C2.44483 10.4582 1.99859 10.2563 1.55705 10.0496C1.16248 9.87118 0.772605 9.68803 0.378036 9.50958C0.152568 9.40627 -0.00244141 9.2513 -0.00244141 8.99302C-0.00244141 8.73943 0.147871 8.58916 0.368642 8.49054C1.14369 8.13834 1.91874 7.78144 2.69848 7.42454C2.75954 7.39637 2.82531 7.36819 2.93334 7.32593C2.64211 8.44358 2.63272 9.54245 2.93804 10.6836Z" fill="#FF9900"/>
</svg>