<svg xmlns="http://www.w3.org/2000/svg" width="20" height="20" viewBox="0 0 20 20" fill="none">
    <path d="M9.8479 1C9.45767 1.13613 9.31314 1.4037 9.32759 1.8027C9.34686 2.37538 9.33241 2.94807 9.33241 3.54892C9.2746 3.51606 9.23605 3.49728 9.19751 3.47381C8.7302 3.13583 8.2677 2.79316 7.79557 2.45518C7.45352 2.20639 7.04883 2.24864 6.8224 2.54437C6.59115 2.8448 6.66342 3.22972 7.00547 3.47851C7.73776 4.01833 8.47486 4.55346 9.20715 5.09329C9.26496 5.13554 9.32277 5.22003 9.32277 5.28575C9.32759 6.44051 9.32759 7.59057 9.32759 8.74533C9.32759 8.7688 9.32277 8.79227 9.31795 8.83452C9.25532 8.80166 9.20715 8.78288 9.15897 8.75472C8.19544 8.19142 7.23672 7.62343 6.26837 7.06952C6.12866 6.98972 6.07566 6.89584 6.06121 6.74093C5.97449 5.85374 5.88296 4.97124 5.78179 4.08874C5.73843 3.71791 5.43492 3.47381 5.07841 3.50198C4.70745 3.53483 4.44729 3.82118 4.4762 4.2014C4.51956 4.72715 4.58219 5.2482 4.63518 5.77394C4.64482 5.87721 4.65445 5.98048 4.66891 6.126C4.58701 6.08375 4.53401 6.05559 4.48102 6.02742C3.97516 5.73169 3.47413 5.43596 2.96827 5.14492C2.72257 5.0041 2.47205 5.01349 2.2408 5.17778C2.01437 5.33738 1.93247 5.5627 1.98547 5.82557C2.02401 6.02742 2.15408 6.16825 2.33234 6.27152C2.82374 6.55317 3.31032 6.83951 3.80173 7.12585C3.85954 7.15871 3.91253 7.19626 3.98962 7.2432C3.54639 7.42158 3.12725 7.58588 2.70812 7.75487C2.54913 7.82058 2.38533 7.88161 2.22635 7.94732C1.84094 8.10223 1.67232 8.45429 1.81203 8.79696C1.95656 9.14902 2.33234 9.28985 2.72739 9.13025C3.58011 8.79696 4.42802 8.45429 5.28075 8.1257C5.3482 8.10223 5.44937 8.09754 5.50718 8.1304C6.54298 8.73125 7.57878 9.33679 8.61458 9.94233C8.63866 9.95642 8.65793 9.97519 8.69648 10.0034C8.63385 10.0409 8.58567 10.0738 8.53749 10.1066C7.54987 10.684 6.55743 11.2614 5.57463 11.8435C5.45419 11.9139 5.35783 11.9186 5.22776 11.8669C4.3943 11.5336 3.56566 11.1957 2.72739 10.8812C2.57804 10.8248 2.39497 10.8108 2.2408 10.8389C1.97101 10.8906 1.78794 11.1346 1.77349 11.3975C1.75422 11.6886 1.89875 11.928 2.17817 12.0406C2.71775 12.2565 3.25733 12.4678 3.79691 12.679C3.85472 12.7025 3.91253 12.7307 3.99925 12.7635C3.79691 12.8809 3.61866 12.9888 3.4404 13.0968C3.06944 13.3127 2.69848 13.5287 2.32752 13.7493C1.98547 13.9511 1.87948 14.3267 2.06737 14.6412C2.26007 14.9604 2.65512 15.0543 3.00681 14.8477C3.49821 14.5661 3.9848 14.275 4.47138 13.9887C4.52438 13.9558 4.58219 13.9277 4.67372 13.876C4.63518 14.2328 4.60628 14.5614 4.57255 14.89C4.54365 15.181 4.50511 15.472 4.48102 15.7631C4.45211 16.1574 4.69781 16.4484 5.07359 16.486C5.43492 16.5235 5.73843 16.2794 5.7866 15.8945C5.88778 15.0214 5.97931 14.1483 6.06121 13.2752C6.07566 13.1062 6.13348 13.0076 6.28764 12.9184C7.25118 12.3645 8.20507 11.8012 9.16379 11.2426C9.20715 11.2144 9.25532 11.1957 9.32277 11.1581C9.32759 11.2332 9.33241 11.2896 9.33241 11.3412C9.33241 12.449 9.33241 13.5568 9.33723 14.6599C9.33723 14.7773 9.29868 14.8524 9.20233 14.9228C8.47005 15.4533 7.74258 15.9884 7.01029 16.5235C6.80313 16.6737 6.68269 16.8662 6.70196 17.1197C6.72123 17.3685 6.85131 17.5515 7.08256 17.6548C7.31862 17.7581 7.55469 17.7346 7.76185 17.5797C8.22916 17.2417 8.69648 16.899 9.15897 16.5611C9.20715 16.5282 9.25532 16.4954 9.33723 16.439C9.33723 16.5329 9.33723 16.5939 9.33723 16.655C9.33723 17.2323 9.33241 17.8144 9.34204 18.3918C9.34686 18.7157 9.61183 18.9692 9.93462 18.9973C10.2526 19.0255 10.5465 18.8283 10.6284 18.5279C10.6524 18.4434 10.6524 18.3542 10.6524 18.265C10.6524 17.6689 10.6524 17.0727 10.6524 16.439C10.7247 16.486 10.7777 16.5188 10.8259 16.5564C11.298 16.899 11.7653 17.2464 12.2423 17.5844C12.4735 17.7487 12.724 17.7581 12.9697 17.6173C13.2154 17.4764 13.3166 17.2511 13.2829 16.9742C13.2588 16.7676 13.1287 16.6268 12.9649 16.5047C12.2423 15.979 11.5244 15.4486 10.8018 14.9275C10.6958 14.8524 10.6476 14.7726 10.6524 14.6412C10.6573 13.4864 10.6573 12.3363 10.6573 11.1487C10.7247 11.1816 10.7729 11.2051 10.8211 11.2332C11.8039 11.8059 12.7867 12.3833 13.7743 12.956C13.8658 13.0076 13.9044 13.0733 13.914 13.1766C14.0007 14.0497 14.1019 14.9228 14.1886 15.7959C14.232 16.2184 14.4825 16.4766 14.8631 16.4719C15.263 16.4672 15.5568 16.148 15.5135 15.749C15.4508 15.1528 15.3882 14.5614 15.3256 13.9699C15.3256 13.9464 15.3256 13.923 15.3256 13.8807C15.393 13.9183 15.4508 13.9464 15.5038 13.9746C16.0145 14.2703 16.5204 14.5754 17.0359 14.8665C17.3346 15.0355 17.6911 14.9557 17.8886 14.6975C18.0813 14.444 18.0572 14.0826 17.8308 13.8619C17.773 13.8056 17.7007 13.7587 17.6284 13.7164C17.1515 13.4348 16.6697 13.1531 16.1928 12.8762C16.135 12.8433 16.082 12.8058 16.0049 12.7588C16.5059 12.5617 16.978 12.3692 17.455 12.1814C17.5562 12.1439 17.6573 12.1063 17.7537 12.0641C18.1487 11.9045 18.3222 11.5524 18.1776 11.2051C18.0331 10.8577 17.6573 10.7169 17.2623 10.8765C16.424 11.2051 15.5809 11.5383 14.7475 11.8763C14.6318 11.9233 14.5451 11.9186 14.4343 11.8528C13.4515 11.2708 12.4591 10.6934 11.4715 10.1113C11.4185 10.0832 11.3703 10.0503 11.3028 10.0081C11.351 9.97519 11.3847 9.94703 11.4233 9.92356C12.435 9.3274 13.4515 8.73594 14.4632 8.13978C14.5596 8.08346 14.6318 8.08815 14.7282 8.1257C15.5761 8.46368 16.424 8.80635 17.2816 9.13025C17.4309 9.18658 17.6236 9.19597 17.7874 9.16311C18.0476 9.11147 18.221 8.86738 18.2355 8.6092C18.2499 8.31816 18.1102 8.08346 17.8308 7.9661C17.3538 7.76895 16.8769 7.58588 16.3999 7.39342C16.2795 7.34647 16.159 7.29484 16.0097 7.23851C16.082 7.19157 16.135 7.15871 16.1928 7.12585C16.6986 6.83012 17.2045 6.53908 17.7055 6.23866C17.9608 6.08845 18.0668 5.83027 18.0138 5.5627C17.9657 5.30922 17.7537 5.0839 17.4791 5.06512C17.3153 5.05574 17.1274 5.09798 16.9877 5.17309C16.4866 5.44535 15.9952 5.74577 15.5038 6.03212C15.4557 6.06028 15.4027 6.08845 15.3256 6.126C15.3786 5.62373 15.4268 5.14962 15.4797 4.67082C15.4942 4.54407 15.5087 4.41264 15.5231 4.2859C15.5713 3.90098 15.3304 3.57239 14.9691 3.53014C14.574 3.4832 14.2561 3.7226 14.2079 4.13099C14.1404 4.73653 14.0826 5.34208 14.0152 5.94762C13.9815 6.24805 13.9525 6.55317 13.914 6.85359C13.9092 6.90992 13.8706 6.98033 13.8273 7.0085C12.8011 7.61404 11.7701 8.21489 10.7392 8.81574C10.7247 8.82513 10.7054 8.82513 10.6717 8.83452C10.6669 8.7688 10.6621 8.70778 10.6621 8.64675C10.6621 7.55302 10.6621 6.45459 10.6573 5.36086C10.6573 5.22942 10.6958 5.14962 10.8066 5.06982C11.5341 4.54407 12.2615 4.01364 12.9842 3.4832C13.254 3.28605 13.3552 3.02317 13.2733 2.75091C13.1384 2.31905 12.6277 2.15006 12.2375 2.42702C11.7653 2.7603 11.3028 3.10767 10.8355 3.44565C10.7873 3.4785 10.7392 3.51136 10.6717 3.55831C10.6669 3.48789 10.6573 3.44095 10.6573 3.39401C10.6573 2.86827 10.6428 2.33783 10.6621 1.81209C10.6765 1.41778 10.532 1.14552 10.1514 1.00469C10.0406 0.999999 9.94425 1 9.8479 1Z" fill="#8295D9"/>
</svg>