<svg xmlns="http://www.w3.org/2000/svg" width="32" height="32" viewBox="0 0 32 32" fill="none">
    <path d="M20.6053 15.1385C20.0313 15.1385 19.5655 14.6727 19.5655 14.0987C19.5655 13.6433 19.3877 13.2139 19.0654 12.8905C18.7431 12.5692 18.3147 12.3914 17.8582 12.3914C17.2843 12.3914 16.8185 11.9256 16.8185 11.3517C16.8185 10.7777 17.2843 10.3119 17.8582 10.3119C18.8699 10.3119 19.8203 10.7049 20.5356 11.4203C21.251 12.1367 21.6451 13.0881 21.6451 14.0987C21.6451 14.6727 21.1792 15.1385 20.6053 15.1385ZM24.9182 15.1374C25.4922 15.1374 25.958 14.6716 25.958 14.0977C25.958 11.935 25.1147 9.90119 23.5853 8.37274C22.0568 6.84325 20.023 6.00104 17.8603 6C17.2864 6 16.8206 6.46581 16.8206 7.03976C16.8206 7.61475 17.2853 8.07953 17.8603 8.07953C19.4688 8.07953 20.9796 8.7065 22.1161 9.84297C23.2525 10.9794 23.8785 12.4912 23.8795 14.0987C23.8774 14.6727 24.3432 15.1374 24.9182 15.1374C24.9172 15.1374 24.9172 15.1374 24.9182 15.1374ZM22.036 25.0609L24.2996 22.7974C25.1855 21.7742 24.4587 21.0776 24.3578 20.9768L21.3259 17.9438C21.2489 17.8658 21.1314 17.846 21.0326 17.8918L18.192 19.2133L12.7572 13.7795L14.0787 10.9389C14.1245 10.8401 14.1037 10.7226 14.0267 10.6457L10.974 7.59292C10.8721 7.49102 10.2378 6.90147 9.43928 7.40264L6.90849 9.93342C5.69717 11.1447 5.69717 13.1151 6.90849 14.3264L17.644 25.062C17.644 25.0609 19.6446 27.1737 22.036 25.0609Z" fill="#9083E0"/>
</svg>