<svg xmlns="http://www.w3.org/2000/svg" width="32" height="32" viewBox="0 0 32 32" fill="none">
    <path d="M28.713 28.9035H27.5288L25.4566 29.5473L23.3845 28.9035H8.61477L6.54268 29.5473L4.47054 28.9035H3.15751C2.26853 28.9035 1.54785 28.1828 1.54785 27.2938V22.7644V20V17.5874V11.316V8.5V6.13898V1.60966C1.54785 0.720676 2.26853 0 3.15751 0H28.7129C29.6019 0 30.3225 0.720676 30.3225 1.60966L30.4513 11.316V14.5V17.5875L30.3225 27.2939C30.3226 28.1829 29.6019 28.9035 28.713 28.9035Z" fill="#330099"/>
    <path d="M26.7562 25.9808H5.11457C4.75896 25.9808 4.4707 25.6925 4.4707 25.3369V3.56647C4.4707 3.21086 4.75896 2.92261 5.11457 2.92261H26.7562C27.1118 2.92261 27.4001 3.21086 27.4001 3.56647V25.3369C27.4001 25.6925 27.1118 25.9808 26.7562 25.9808Z" fill="#330099"/>
    <path d="M7.97107 32.0001H5.11457C4.75896 32.0001 4.4707 31.7118 4.4707 31.3562V28.9036H8.61493V31.3562C8.61493 31.7118 8.32667 32.0001 7.97107 32.0001Z" fill="#330099"/>
    <path d="M26.8851 32.0001H24.0286C23.673 32.0001 23.3848 31.7118 23.3848 31.3562V28.9036H27.529V31.3562C27.529 31.7118 27.2407 32.0001 26.8851 32.0001Z" fill="#330099"/>
    <path d="M22.5 14C22.5 17.6187 19.7026 20.5 16.091 20.5C12.4349 20.5 9.5 17.5739 9.5 14C9.5 10.4261 12.4349 7.5 16.091 7.5C19.7026 7.5 22.5 10.3813 22.5 14Z" stroke="white" stroke-width="3"/>
</svg>